# xmcd
#
# Track frame offsets:
#	150
#	13481
#	28662
#	40878
#	55522
#	64810
#	81550
#	93191
#	106737
#	120599
#	143530
#	158922
#	171640
#	182620
#	196163
#
# Disc length: 2790 seconds
#
# Revision: 0
# Processed by: cddbd v1.4PL0 Copyright (c) Steve Scherf et al.
# Submitted via: dBpowerAMP V4.0
#
DISCID=c50ae40f
DTITLE=Various Artist - Classic Country Hits
DYEAR=1900
DGENRE=Country
TTITLE0=Hank Williams, Sr. - Hey Good Lookin'
TTITLE1=Charlie Daniels Band - In America
TTITLE2=Janie Fricke and Moe Bandy - It's A Cheating Situation
TTITLE3=Glen Campbell - Rhinestone Cowboy
TTITLE4=Glen Campbell - Rhinestone Cowboy
TTITLE5=Mark Gray and Tammy Wynette - Sometimes When We Touch
TTITLE6=Crystal Gayle - Don't It Make My Brown Eyes Blue
TTITLE7=Waylon Jennings and Willie Nelson - Good Hearted Woman (Live)
TTITLE8=Johnny Duncan - It Couldn't Have Been Any Better
TTITLE9=Charlie Daniels - Let Freedom Ring
TTITLE10=Willie Nelson - Living In The Promise Land
TTITLE11=Jimmy Wakely - One Has My Name (Other Has My Heart)
TTITLE12=Dave Dudley - Six Days On The Road
TTITLE13=George Jones and Lacy J. Dalton - Size Seven Round (Made Of Gold)
TTITLE14=Crystal Gayle - Talking In Your Sleep
EXTD=
EXTT0=
EXTT1=
EXTT2=
EXTT3=
EXTT4=
EXTT5=
EXTT6=
EXTT7=
EXTT8=
EXTT9=
EXTT10=
EXTT11=
EXTT12=
EXTT13=
EXTT14=
PLAYORDER=
